<svg width="13" height="13" viewBox="0 0 13 13" fill="none" xmlns="http://www.w3.org/2000/svg">
<path fill-rule="evenodd" clip-rule="evenodd" d="M0.210934 0.210934C0.34617 0.0758661 0.529489 0 0.720623 0C0.911757 0 1.09508 0.0758661 1.23031 0.210934L12.7704 11.7511C12.8413 11.8171 12.8981 11.8967 12.9376 11.9852C12.977 12.0737 12.9982 12.1692 12.9999 12.266C13.0016 12.3629 12.9838 12.4591 12.9475 12.5489C12.9112 12.6387 12.8572 12.7203 12.7887 12.7887C12.7203 12.8572 12.6387 12.9112 12.5489 12.9475C12.4591 12.9838 12.3629 13.0016 12.266 12.9999C12.1692 12.9982 12.0737 12.977 11.9852 12.9376C11.8967 12.8981 11.8171 12.8413 11.7511 12.7704L0.210934 1.23031C0.0758661 1.09508 0 0.911757 0 0.720623C0 0.529489 0.0758661 0.34617 0.210934 0.210934Z" fill="white"/>
<path fill-rule="evenodd" clip-rule="evenodd" d="M12.7707 0.210934C12.9057 0.34617 12.9816 0.529489 12.9816 0.720623C12.9816 0.911757 12.9057 1.09508 12.7707 1.23031L1.23053 12.7704C1.09381 12.8978 0.912967 12.9672 0.726112 12.9639C0.539257 12.9606 0.360977 12.8849 0.22883 12.7528C0.0966826 12.6206 0.0209873 12.4423 0.0176905 12.2555C0.0143937 12.0686 0.0837526 11.8878 0.211156 11.7511L11.7513 0.210934C11.8865 0.0758661 12.0698 0 12.261 0C12.4521 0 12.6354 0.0758661 12.7707 0.210934Z" fill="white"/>
</svg>
