<svg width="34" height="42" viewBox="0 0 34 42" fill="none" xmlns="http://www.w3.org/2000/svg">
<path fill-rule="evenodd" clip-rule="evenodd" d="M15.8812 40.56C16.7111 40.56 31.5397 24.7164 31.5397 16.0684C31.5397 7.42047 24.5291 0.409912 15.8812 0.409912C7.23321 0.409912 0.222656 7.42047 0.222656 16.0684C0.222656 24.7164 15.0513 40.56 15.8812 40.56ZM15.8812 23.9003C20.2657 23.9003 23.8201 20.3459 23.8201 15.9614C23.8201 11.5768 20.2657 8.02248 15.8812 8.02248C11.4967 8.02248 7.94233 11.5768 7.94233 15.9614C7.94233 20.3459 11.4967 23.9003 15.8812 23.9003Z" fill="#99A3A3"/>
<path fill-rule="evenodd" clip-rule="evenodd" d="M0.222656 16.0684C0.222656 24.7164 15.0513 40.56 15.8812 40.56V23.9003C11.4967 23.9001 7.94233 20.3459 7.94233 15.9614C7.94233 11.5768 11.4967 8.0225 15.8812 8.02247V0.409912C7.23321 0.409912 0.222656 7.42047 0.222656 16.0684Z" fill="#ADB7B7"/>
</svg>
