<svg width="24" height="25" viewBox="0 0 24 25" fill="none" xmlns="http://www.w3.org/2000/svg">
<path fill-rule="evenodd" clip-rule="evenodd" d="M10.4993 2.5C9.14387 2.50012 7.80814 2.82436 6.60353 3.44569C5.39893 4.06702 4.36037 4.96742 3.57451 6.07175C2.78866 7.17609 2.27829 8.45235 2.08599 9.79404C1.89368 11.1357 2.02503 12.504 2.46906 13.7846C2.91308 15.0652 3.65692 16.2211 4.63851 17.1557C5.6201 18.0904 6.81098 18.7768 8.11179 19.1576C9.4126 19.5384 10.7856 19.6026 12.1163 19.3449C13.447 19.0872 14.6967 18.515 15.7613 17.676L19.4133 21.328C19.6019 21.5102 19.8545 21.611 20.1167 21.6087C20.3789 21.6064 20.6297 21.5012 20.8151 21.3158C21.0005 21.1304 21.1057 20.8796 21.108 20.6174C21.1102 20.3552 21.0094 20.1026 20.8273 19.914L17.1753 16.262C18.1633 15.0086 18.7784 13.5024 18.9504 11.9157C19.1223 10.3291 18.8441 8.72602 18.1475 7.29009C17.4509 5.85417 16.3642 4.64336 15.0116 3.79623C13.659 2.94911 12.0952 2.49989 10.4993 2.5ZM3.99928 11C3.99928 9.27609 4.6841 7.62279 5.90308 6.40381C7.12207 5.18482 8.77537 4.5 10.4993 4.5C12.2232 4.5 13.8765 5.18482 15.0955 6.40381C16.3145 7.62279 16.9993 9.27609 16.9993 11C16.9993 12.7239 16.3145 14.3772 15.0955 15.5962C13.8765 16.8152 12.2232 17.5 10.4993 17.5C8.77537 17.5 7.12207 16.8152 5.90308 15.5962C4.6841 14.3772 3.99928 12.7239 3.99928 11Z" fill="white"/>
</svg>
