<svg width="168" height="133" viewBox="0 0 168 133" fill="none" xmlns="http://www.w3.org/2000/svg">
<path d="M10.7431 119.032V132H141.193V119.032M10.7431 119.032C9.19636 119.032 7.87555 118.673 6.75279 117.951M10.7431 119.032H131.435M141.193 119.032C177.579 113.845 178.526 56.3529 124.398 59.5949M141.193 119.032H131.435M26.9668 1.23868C6.18153 1.67095 0.99507 21.9516 1 32.0378V92.5555C1.00121 106.754 2.36362 115.129 6.75279 117.951M26.9668 1.23868C47.7521 0.806409 62.3307 1.05857 67.0219 1.23868C87.0494 2.00762 97.3338 41.2235 97.3338 59.5949M26.9668 1.23868C49.7008 3.39998 61.0677 50.9496 54.031 69.321M6.75279 117.951L32.921 83.91C50.2421 63.9176 90.4053 59.5949 114.655 59.5949H124.398M124.398 59.5949C144.425 57.4336 177.985 98.4991 131.435 119.032" stroke="white" stroke-width="2"/>
</svg>
